<svg width="26" height="13" viewBox="0 0 26 13" fill="none" xmlns="http://www.w3.org/2000/svg">
    <path d="M7.5 3C7.5 3.79565 7.18393 4.55871 6.62132 5.12132C6.05871 5.68393 5.29565 6 4.5 6C3.70435 6 2.94129 5.68393 2.37868 5.12132C1.81607 4.55871 1.5 3.79565 1.5 3C1.5 2.20435 1.81607 1.44129 2.37868 0.878679C2.94129 0.31607 3.70435 0 4.5 0C5.29565 0 6.05871 0.31607 6.62132 0.878679C7.18393 1.44129 7.5 2.20435 7.5 3ZM21.5 6C22.2956 6 23.0587 5.68393 23.6213 5.12132C24.1839 4.55871 24.5 3.79565 24.5 3C24.5 2.20435 24.1839 1.44129 23.6213 0.878679C23.0587 0.31607 22.2956 0 21.5 0C20.7044 0 19.9413 0.31607 19.3787 0.878679C18.8161 1.44129 18.5 2.20435 18.5 3C18.5 3.79565 18.8161 4.55871 19.3787 5.12132C19.9413 5.68393 20.7044 6 21.5 6ZM20 8C19.2044 8 18.4413 8.31607 17.8787 8.87868C17.3161 9.44129 17 10.2044 17 11V13H26V11C26 10.2044 25.6839 9.44129 25.1213 8.87868C24.5587 8.31607 23.7956 8 23 8H20ZM3 8C2.20435 8 1.44129 8.31607 0.878679 8.87868C0.31607 9.44129 0 10.2044 0 11V13H9V11C9 10.2044 8.68393 9.44129 8.12132 8.87868C7.55871 8.31607 6.79565 8 6 8H3ZM15 5.5C15 6.03043 14.7893 6.53914 14.4142 6.91421C14.0391 7.28929 13.5304 7.5 13 7.5C12.4696 7.5 11.9609 7.28929 11.5858 6.91421C11.2107 6.53914 11 6.03043 11 5.5C11 4.96957 11.2107 4.46086 11.5858 4.08579C11.9609 3.71071 12.4696 3.5 13 3.5C13.5304 3.5 14.0391 3.71071 14.4142 4.08579C14.7893 4.46086 15 4.96957 15 5.5ZM13 9C12.2044 9 11.4413 9.31607 10.8787 9.87868C10.3161 10.4413 10 11.2044 10 12V13H16V12C16 11.2044 15.6839 10.4413 15.1213 9.87868C14.5587 9.31607 13.7956 9 13 9Z"
          fill="black"/>
</svg>
