<svg width="23" height="24" viewBox="0 0 23 24" fill="none" xmlns="http://www.w3.org/2000/svg">
    <path d="M0.703125 3.75H5.625V2.57812C5.625 1.89436 5.89662 1.23861 6.38012 0.755115C6.86361 0.271623 7.51936 0 8.20312 0H13.8281C14.5119 0 15.1676 0.271623 15.6511 0.755115C16.1346 1.23861 16.4062 1.89436 16.4062 2.57812V3.75H21.3281C21.5146 3.75 21.6934 3.82408 21.8253 3.95594C21.9572 4.0878 22.0312 4.26664 22.0312 4.45312C22.0312 4.63961 21.9572 4.81845 21.8253 4.95031C21.6934 5.08217 21.5146 5.15625 21.3281 5.15625H20.1562V22.2656C20.1562 22.7007 19.9834 23.118 19.6757 23.4257C19.368 23.7334 18.9507 23.9062 18.5156 23.9062H3.51562C3.0805 23.9062 2.66321 23.7334 2.35553 23.4257C2.04785 23.118 1.875 22.7007 1.875 22.2656V5.15625H0.703125C0.516645 5.15625 0.337801 5.08217 0.20594 4.95031C0.0740776 4.81845 0 4.63961 0 4.45312C0 4.26664 0.0740776 4.0878 0.20594 3.95594C0.337801 3.82408 0.516645 3.75 0.703125 3.75ZM15 2.57812C15 2.26732 14.8765 1.96925 14.6568 1.74948C14.437 1.52972 14.1389 1.40625 13.8281 1.40625H8.20312C7.89232 1.40625 7.59425 1.52972 7.37448 1.74948C7.15471 1.96925 7.03125 2.26732 7.03125 2.57812V3.75H15V2.57812ZM3.28125 22.2656C3.28125 22.3278 3.30594 22.3874 3.3499 22.4314C3.39385 22.4753 3.45346 22.5 3.51562 22.5H18.5156C18.5778 22.5 18.6374 22.4753 18.6814 22.4314C18.7253 22.3874 18.75 22.3278 18.75 22.2656V5.15625H3.28125V22.2656ZM13.125 10.0781V17.5781C13.125 17.7646 13.1991 17.9434 13.3309 18.0753C13.4628 18.2072 13.6416 18.2812 13.8281 18.2812C14.0146 18.2812 14.1934 18.2072 14.3253 18.0753C14.4572 17.9434 14.5312 17.7646 14.5312 17.5781V10.0781C14.5312 9.89164 14.4572 9.7128 14.3253 9.58094C14.1934 9.44908 14.0146 9.375 13.8281 9.375C13.6416 9.375 13.4628 9.44908 13.3309 9.58094C13.1991 9.7128 13.125 9.89164 13.125 10.0781ZM7.5 10.0781V17.5781C7.5 17.7646 7.57408 17.9434 7.70594 18.0753C7.8378 18.2072 8.01664 18.2812 8.20312 18.2812C8.38961 18.2812 8.56845 18.2072 8.70031 18.0753C8.83217 17.9434 8.90625 17.7646 8.90625 17.5781V10.0781C8.90625 9.89164 8.83217 9.7128 8.70031 9.58094C8.56845 9.44908 8.38961 9.375 8.20312 9.375C8.01664 9.375 7.8378 9.44908 7.70594 9.58094C7.57408 9.7128 7.5 9.89164 7.5 10.0781Z"
          fill="#888888"/>
</svg>
